<svg width="86" height="89" viewBox="0 0 86 89" fill="none" xmlns="http://www.w3.org/2000/svg">
<g clip-path="url(#clip0_293_1569)">
<path d="M42.1806 20.953C41.5652 20.953 40.9637 21.1348 40.452 21.4755C39.9404 21.8161 39.5416 22.3003 39.3061 22.8667C39.0706 23.4332 39.009 24.0565 39.1291 24.6579C39.2491 25.2593 39.5454 25.8116 39.9805 26.2452C40.4157 26.6788 40.9701 26.974 41.5736 27.0936C42.1771 27.2133 42.8027 27.1519 43.3712 26.9172C43.9397 26.6826 44.4256 26.2852 44.7675 25.7754C45.1094 25.2656 45.2919 24.6662 45.2919 24.0531C45.2919 23.646 45.2114 23.2429 45.055 22.8667C44.8987 22.4906 44.6695 22.1489 44.3806 21.861C44.0917 21.5731 43.7487 21.3448 43.3712 21.189C42.9937 21.0332 42.5891 20.953 42.1806 20.953ZM42.1806 25.6842C41.8545 25.6842 41.5358 25.5879 41.2647 25.4074C40.9936 25.2269 40.7823 24.9704 40.6575 24.6702C40.5327 24.3701 40.5001 24.0398 40.5637 23.7212C40.6273 23.4025 40.7843 23.1098 41.0149 22.8801C41.2454 22.6504 41.5392 22.4939 41.859 22.4306C42.1787 22.3672 42.5102 22.3997 42.8114 22.524C43.1127 22.6484 43.3702 22.8589 43.5513 23.129C43.7325 23.3991 43.8291 23.7167 43.8291 24.0416C43.8291 24.4773 43.6554 24.8951 43.3463 25.2031C43.0371 25.5112 42.6178 25.6842 42.1806 25.6842Z" fill="white"/>
<path d="M85.1118 63.9121L79.9565 59.2528C81.4214 52.4983 80.9931 45.4724 78.7184 38.9442C76.4437 32.4161 72.4103 26.6373 67.0597 22.2406C61.7091 17.8438 55.2477 14.9986 48.3827 14.0164C41.5177 13.0341 34.5138 13.9527 28.1378 16.6716L23.7265 12.134C23.6264 12.0036 23.4998 11.8958 23.3549 11.8176C23.2101 11.7395 23.0502 11.6927 22.886 11.6804C22.7217 11.6681 22.5567 11.6905 22.4017 11.7462C22.2467 11.802 22.1054 11.8897 21.9868 12.0037C21.8683 12.1177 21.7753 12.2553 21.7139 12.4077C21.6525 12.56 21.6241 12.7235 21.6306 12.8875C21.6371 13.0515 21.6784 13.2123 21.7516 13.3594C21.8249 13.5064 21.9285 13.6363 22.0557 13.7406L25.8995 17.7037L26.2565 18.0664C26.7975 18.6195 27.0958 19.3641 27.0861 20.1364C27.0763 20.9086 26.7591 21.6454 26.2043 22.1848L25.9533 22.4258C25.6788 22.6934 25.354 22.9044 24.9974 23.0467C24.6409 23.1889 24.2598 23.2597 23.8758 23.2548C23.4918 23.25 23.1125 23.1697 22.7597 23.0185C22.4069 22.8673 22.0876 22.6482 21.82 22.3738L20.5108 21.0357L20.4924 21.0494L15.8454 16.6885C15.2818 16.1586 14.5301 15.8733 13.7556 15.8952C12.981 15.9172 12.2468 16.2446 11.7144 16.8055C11.4506 17.0832 11.2445 17.4099 11.1076 17.767C10.9708 18.1241 10.906 18.5046 10.9169 18.8867C10.9278 19.2688 11.0142 19.645 11.1712 19.9938C11.3282 20.3426 11.5527 20.6571 11.8318 20.9194L16.0627 24.8978L16.0488 24.9138L17.9101 26.5633C18.197 26.8172 18.4308 27.125 18.5982 27.4691C18.7655 27.8132 18.8631 28.1867 18.8854 28.5684C18.9076 28.9501 18.8541 29.3325 18.7278 29.6935C18.6016 30.0546 18.4051 30.3873 18.1497 30.6726L18.0391 30.7988C17.5242 31.3754 16.8008 31.7248 16.0276 31.7704C15.2544 31.816 14.4946 31.5541 13.915 31.0421L10.4597 27.9818L7.67167 25.5397C6.75023 24.7336 5.54544 24.3248 4.32178 24.403C3.09811 24.4811 1.95558 25.0399 1.145 25.9566C0.335721 26.8748 -0.074559 28.0756 0.00434379 29.295C0.0832465 30.5145 0.644878 31.6528 1.56578 32.4598L7.7162 37.8467C4.75401 45.5926 4.4385 54.0958 6.81857 62.0385C9.19863 69.9813 14.1414 76.9201 20.8809 81.7798H65.1609C67.3159 80.2246 69.3007 78.4477 71.0825 76.4785L73.0543 78.3507C73.4934 78.7682 74.0108 79.0954 74.5768 79.3136C75.1429 79.5319 75.7465 79.6369 76.3533 79.6227C76.9601 79.6085 77.5581 79.4753 78.1132 79.2308C78.6683 78.9863 79.1697 78.6352 79.5887 78.1977C80.435 77.3136 80.8942 76.1308 80.8654 74.9094C80.8366 73.688 80.3221 72.5281 79.4351 71.6846L76.4643 68.8637L72.3018 65.0338C71.9071 64.67 71.6729 64.1653 71.6505 63.63C71.628 63.0947 71.8191 62.5723 72.182 62.1769L72.2181 62.1364C72.5835 61.7434 73.0902 61.5105 73.6275 61.4886C74.1647 61.4666 74.6888 61.6575 75.0853 62.0193L78.2511 64.9167L81.5229 67.8684C81.7829 68.1074 82.0879 68.2927 82.4203 68.4136C82.7526 68.5345 83.1057 68.5887 83.4592 68.5728C83.8126 68.557 84.1594 68.4715 84.4795 68.3214C84.7996 68.1712 85.0867 67.9594 85.3242 67.6981C85.5617 67.4367 85.7448 67.1311 85.8631 66.7988C85.9813 66.4666 86.0323 66.1143 86.0131 65.7622C85.994 65.4102 85.905 65.0655 85.7513 64.7479C85.5976 64.4304 85.3824 64.1463 85.1179 63.9121H85.1118Z" fill="#CFCFCF"/>
<path d="M48.5685 33.5543H32.5037C31.7055 33.5543 30.9401 33.8702 30.3756 34.4325C29.8112 34.9948 29.4939 35.7574 29.4937 36.5527V66.2377C29.4944 67.0327 29.8117 67.7949 30.3761 68.3569C30.9406 68.9188 31.7058 69.2345 32.5037 69.2345H55.1988C55.9963 69.2339 56.761 68.918 57.3249 68.3561C57.8888 67.7942 58.2059 67.0323 58.2065 66.2377V43.1568L48.5685 33.5543Z" fill="white"/>
<path d="M17.4462 33.3041C16.9502 33.3041 16.4654 33.4506 16.053 33.7252C15.6406 33.9998 15.3192 34.39 15.1293 34.8466C14.9395 35.3032 14.8899 35.8056 14.9866 36.2903C15.0834 36.775 15.3222 37.2202 15.673 37.5697C16.0237 37.9192 16.4705 38.1571 16.957 38.2536C17.4434 38.35 17.9477 38.3005 18.4059 38.1114C18.8641 37.9222 19.2558 37.602 19.5314 37.191C19.8069 36.7801 19.954 36.297 19.954 35.8028C19.954 35.1401 19.6898 34.5045 19.2195 34.0359C18.7492 33.5673 18.1113 33.3041 17.4462 33.3041ZM17.4462 37.0598C17.1966 37.0603 16.9525 36.987 16.7447 36.8491C16.5369 36.7113 16.3749 36.5151 16.2791 36.2855C16.1832 36.0558 16.1579 35.803 16.2063 35.559C16.2547 35.315 16.3747 35.0908 16.551 34.9148C16.7274 34.7388 16.9522 34.6188 17.197 34.5701C17.4417 34.5214 17.6955 34.5462 17.9262 34.6413C18.1568 34.7363 18.354 34.8974 18.4927 35.1042C18.6314 35.311 18.7055 35.5541 18.7055 35.8028C18.7055 36.1358 18.5729 36.4552 18.3368 36.6908C18.1007 36.9265 17.7804 37.0592 17.4462 37.0598Z" fill="white"/>
<path d="M53.9388 0C53.4196 0 52.912 0.153412 52.4803 0.44084C52.0486 0.728268 51.7121 1.13681 51.5134 1.61478C51.3147 2.09276 51.2627 2.6187 51.364 3.12612C51.4653 3.63354 51.7153 4.09962 52.0824 4.46545C52.4496 4.83128 52.9174 5.08041 53.4266 5.18134C53.9359 5.28228 54.4637 5.23047 54.9434 5.03249C55.4231 4.8345 55.8332 4.49923 56.1216 4.06907C56.4101 3.6389 56.5641 3.13316 56.5641 2.61581C56.5641 1.92205 56.2875 1.25671 55.7951 0.766152C55.3028 0.275594 54.6351 0 53.9388 0ZM53.9388 3.92944C53.9394 4.27703 54.0785 4.61016 54.3255 4.85562C54.5725 5.10108 54.9072 5.23879 55.256 5.23849C55.6049 5.23818 55.9393 5.09989 56.1859 4.854C56.4325 4.60811 56.571 4.27473 56.571 3.92714C56.571 3.57955 56.4325 3.24619 56.1859 3.0003C55.9393 2.7544 55.6049 2.61611 55.256 2.61581C54.9072 2.6155 54.5725 2.75321 54.3255 2.99867C54.0785 3.24413 53.9394 3.57726 53.9388 3.92485V3.92944Z" fill="#CFCFCF"/>
<path d="M66.0787 29.2689L64.7288 30.0125L63.994 31.3667L63.2477 30.0194L61.8909 29.2872L63.2407 28.5436L63.9756 27.1894L64.7219 28.5367L66.0787 29.2689Z" fill="white"/>
<path d="M38.5624 3.35038L37.2102 4.09404L36.4754 5.44593L35.729 4.10093L34.3722 3.36722L35.7244 2.62356L36.4592 1.27167L37.2056 2.61897L38.5624 3.35038Z" fill="#CFCFCF"/>
<path d="M14.9684 50.2491L13.6346 51.0241L12.9313 52.3936L12.1534 51.0647L10.7805 50.3639L12.1127 49.5889L12.8161 48.2194L13.5939 49.5483L14.9684 50.2491Z" fill="white"/>
<path d="M8.75711 5.92773C7.58373 4.82451 5.73495 4.87797 4.62775 6.04712C3.52054 7.21628 3.57418 9.0584 4.74756 10.1616L6.94528 12.2279C8.11867 13.3311 9.96745 13.2777 11.0747 12.1085C12.1819 10.9394 12.1282 9.09726 10.9548 7.99404L8.75711 5.92773Z" fill="#CFCFCF"/>
<path d="M48.5623 33.5543V40.1042C48.5623 40.9158 48.8859 41.6942 49.4619 42.2681C50.0379 42.842 50.8191 43.1645 51.6337 43.1645H58.2026L48.5623 33.5543Z" fill="#777777"/>
<path d="M47.5879 44.5748H34.9569C34.5905 44.5748 34.2935 44.8707 34.2935 45.2358V45.2366C34.2935 45.6016 34.5905 45.8976 34.9569 45.8976H47.5879C47.9543 45.8976 48.2514 45.6016 48.2514 45.2366V45.2358C48.2514 44.8707 47.9543 44.5748 47.5879 44.5748Z" fill="#777777"/>
<path d="M10.92 71.4631C14.3549 76.8379 19.0949 81.2627 24.7012 84.3281C30.3076 87.3936 36.5994 89.0006 42.9944 89.0006C49.3894 89.0006 55.6812 87.3936 61.2875 84.3281C66.8939 81.2627 71.6338 76.8379 75.0687 71.4631H10.92Z" fill="#CFCFCF"/>
<path d="M53.2721 50.46H35.1556C34.7892 50.46 34.4922 50.756 34.4922 51.121V51.1218C34.4922 51.4869 34.7892 51.7828 35.1556 51.7828H53.2721C53.6385 51.7828 53.9355 51.4869 53.9355 51.1218V51.121C53.9355 50.756 53.6385 50.46 53.2721 50.46Z" fill="#777777"/>
<path d="M53.2721 56.2795H35.1556C34.7892 56.2795 34.4922 56.5755 34.4922 56.9406V56.9413C34.4922 57.3064 34.7892 57.6024 35.1556 57.6024H53.2721C53.6385 57.6024 53.9355 57.3064 53.9355 56.9413V56.9406C53.9355 56.5755 53.6385 56.2795 53.2721 56.2795Z" fill="#777777"/>
<path d="M70.829 76.5564L65.7774 71.503C66.9438 69.5236 67.3415 67.1867 66.8951 64.9348C66.4488 62.6828 65.1894 60.6721 63.3553 59.2831C61.5211 57.8941 59.2396 57.2232 56.9425 57.3975C54.6454 57.5718 52.4922 58.5792 50.8903 60.2289C49.2884 61.8786 48.3491 64.0562 48.2501 66.3495C48.1511 68.6428 48.8994 70.8927 50.3532 72.6734C51.807 74.454 53.8655 75.6418 56.1391 76.012C58.4127 76.3821 60.7436 75.9089 62.6906 74.6819L67.6947 79.6924L70.829 76.5564ZM50.508 66.7083C50.5138 65.2978 50.9389 63.9206 51.7296 62.7507C52.5203 61.5807 53.6412 60.6704 54.9507 60.1347C56.2602 59.599 57.6997 59.462 59.0874 59.7408C60.475 60.0197 61.7486 60.702 62.7474 61.7015C63.7462 62.7011 64.4254 63.9731 64.6991 65.357C64.9729 66.7409 64.829 68.1745 64.2857 69.477C63.7423 70.7794 62.8238 71.8923 61.6462 72.675C60.4685 73.4577 59.0845 73.8752 57.6689 73.8748C56.726 73.8745 55.7925 73.6887 54.9218 73.3281C54.0511 72.9675 53.2605 72.4392 52.5952 71.7735C51.9299 71.1077 51.4031 70.3177 51.0449 69.4486C50.6867 68.5795 50.5043 67.6485 50.508 66.709V66.7083Z" fill="#777777"/>
</g>
<defs>
<clipPath id="clip0_293_1569">
<rect width="86" height="89" fill="white"/>
</clipPath>
</defs>
</svg>
